<?xml version="1.0" encoding="UTF-8"?>
<svg width="1240" height="1754" viewBox="0 0 1240 1754" fill="none" xmlns="http://www.w3.org/2000/svg">
<rect width="1240" height="1754" fill="#FFF9DC"/>
<rect x="70" y="70" width="1100" height="1614" rx="34" fill="#FFFFFF" stroke="#DCE8E5" stroke-width="2"/>
<image href="https://www.jvision-ai.com/public/logo.png" x="108" y="112" width="214" height="60" preserveAspectRatio="xMinYMid meet"/>
<text x="108" y="264" fill="#00A878" font-family="Arial, Microsoft JhengHei, sans-serif" font-size="30" font-weight="700">Jvision BI Analytics</text>
<text x="108" y="356" fill="#17313B" font-family="Arial, Microsoft JhengHei, sans-serif" font-size="70" font-weight="800">BI 分析平台 Demo</text>
<text x="108" y="442" fill="#17313B" font-family="Arial, Microsoft JhengHei, sans-serif" font-size="56" font-weight="800">資料連接、AI 洞察、互動報表</text>
<text x="108" y="526" fill="#667783" font-family="Arial, Microsoft JhengHei, sans-serif" font-size="30">把資料集、語意模型、AI 問答、互動儀表板與治理分享集中管理。</text>
<text x="108" y="574" fill="#667783" font-family="Arial, Microsoft JhengHei, sans-serif" font-size="30">掃描 QR Code 直接進入互動 Demo，測試商業智慧分析流程。</text>
<rect x="108" y="672" width="1024" height="420" rx="28" fill="#17313B"/>
<rect x="158" y="728" width="292" height="280" rx="22" fill="#FFFFFF"/>
<rect x="474" y="728" width="292" height="280" rx="22" fill="#EAF8F2"/>
<rect x="790" y="728" width="292" height="280" rx="22" fill="#FFFFFF"/>
<text x="190" y="806" fill="#00A878" font-family="Arial, Microsoft JhengHei, sans-serif" font-size="32" font-weight="800">資料連接</text>
<text x="190" y="874" fill="#17313B" font-family="Arial, Microsoft JhengHei, sans-serif" font-size="26">資料集匯入</text>
<text x="190" y="932" fill="#17313B" font-family="Arial, Microsoft JhengHei, sans-serif" font-size="26">語意模型</text>
<text x="506" y="806" fill="#00A878" font-family="Arial, Microsoft JhengHei, sans-serif" font-size="32" font-weight="800">AI 洞察</text>
<text x="506" y="874" fill="#17313B" font-family="Arial, Microsoft JhengHei, sans-serif" font-size="26">自然語言問答</text>
<text x="506" y="932" fill="#17313B" font-family="Arial, Microsoft JhengHei, sans-serif" font-size="26">摘要報告</text>
<text x="822" y="806" fill="#00A878" font-family="Arial, Microsoft JhengHei, sans-serif" font-size="32" font-weight="800">分享治理</text>
<text x="822" y="874" fill="#17313B" font-family="Arial, Microsoft JhengHei, sans-serif" font-size="26">報表發布</text>
<text x="822" y="932" fill="#17313B" font-family="Arial, Microsoft JhengHei, sans-serif" font-size="26">權限審核</text>
<text x="108" y="1192" fill="#17313B" font-family="Arial, Microsoft JhengHei, sans-serif" font-size="38" font-weight="800">行銷重點</text>
<text x="108" y="1260" fill="#667783" font-family="Arial, Microsoft JhengHei, sans-serif" font-size="30">適合管理者、資料團隊、業務、營運與跨部門決策場景。</text>
<text x="108" y="1352" fill="#17313B" font-family="Arial, Microsoft JhengHei, sans-serif" font-size="38" font-weight="800">掃描 QR Code 直接進入 Demo</text>
<text x="108" y="1410" fill="#667783" font-family="Arial, Microsoft JhengHei, sans-serif" font-size="26">https://jvision-bi-analytics.vercel.app</text>
<rect x="852" y="1238" width="280" height="280" rx="24" fill="#FFFFFF" stroke="#DCE8E5" stroke-width="2"/>
<g transform="translate(867 1253)"><path fill="#ffffff" d="M0 0h31v31H0z"/><path stroke="#17313B" d="M1 1.5h7m1 0h1m1 0h1m1 0h1m3 0h5m1 0h7M1 2.5h1m5 0h1m1 0h1m1 0h1m1 0h1m1 0h1m2 0h2m3 0h1m5 0h1M1 3.5h1m1 0h3m1 0h1m4 0h1m1 0h3m3 0h1m2 0h1m1 0h3m1 0h1M1 4.5h1m1 0h3m1 0h1m1 0h3m1 0h3m2 0h1m4 0h1m1 0h3m1 0h1M1 5.5h1m1 0h3m1 0h1m2 0h3m3 0h1m2 0h2m2 0h1m1 0h3m1 0h1M1 6.5h1m5 0h1m2 0h1m3 0h1m2 0h1m2 0h1m2 0h1m5 0h1M1 7.5h7m1 0h1m1 0h1m1 0h1m1 0h1m1 0h1m1 0h1m1 0h1m1 0h7M9 8.5h3m1 0h1m1 0h1m1 0h4M1 9.5h1m1 0h2m1 0h3m2 0h3m1 0h5m3 0h1m2 0h1m1 0h2M2 10.5h3m3 0h1m6 0h1m1 0h1m2 0h6m3 0h1M1 11.5h1m1 0h5m1 0h2m2 0h1m1 0h1m1 0h3m3 0h1m1 0h1m1 0h2M1 12.5h1m6 0h1m3 0h1m1 0h1m5 0h1m1 0h2m5 0h1M2 13.5h2m1 0h1m1 0h3m1 0h2m3 0h1m1 0h1m5 0h1m1 0h2M5 14.5h2m1 0h2m1 0h1m2 0h4m2 0h1m2 0h1m3 0h3M2 15.5h7m2 0h1m1 0h1m1 0h1m4 0h3m1 0h1m2 0h3M4 16.5h2m3 0h1m1 0h4m6 0h1m1 0h1m4 0h1M1 17.5h1m1 0h1m3 0h1m1 0h1m2 0h1m6 0h4m1 0h3m1 0h1M2 18.5h2m1 0h1m3 0h2m2 0h2m1 0h1m7 0h1m1 0h3M1 19.5h1m1 0h6m4 0h1m2 0h1m1 0h2m1 0h1m1 0h1m3 0h1M3 20.5h1m1 0h2m2 0h3m4 0h1m1 0h2m1 0h1m1 0h1m3 0h1M2 21.5h1m1 0h1m1 0h3m2 0h2m1 0h1m3 0h2m1 0h7M9 22.5h2m3 0h2m1 0h1m3 0h1m3 0h5M1 23.5h7m1 0h1m1 0h1m2 0h1m2 0h1m2 0h2m1 0h1m1 0h2m1 0h1M1 24.5h1m5 0h1m1 0h1m2 0h2m5 0h1m1 0h1m3 0h2m1 0h1M1 25.5h1m1 0h3m1 0h1m2 0h1m2 0h1m1 0h2m1 0h2m1 0h5m1 0h1M1 26.5h1m1 0h3m1 0h1m1 0h1m3 0h1m1 0h3m7 0h2m2 0h1M1 27.5h1m1 0h3m1 0h1m1 0h1m3 0h2m2 0h4m3 0h1m2 0h1m1 0h1M1 28.5h1m5 0h1m2 0h1m1 0h1m2 0h1m1 0h1m1 0h1m1 0h1m1 0h1m2 0h1m1 0h1M1 29.5h7m1 0h1m1 0h4m2 0h1m1 0h4m1 0h2m2 0h1"/>
</g>
<rect x="108" y="1574" width="486" height="4" fill="#00A878"/>
<text x="108" y="1632" fill="#667783" font-family="Arial, Microsoft JhengHei, sans-serif" font-size="24">Jvision AI | BI 分析平台互動展示</text>
</svg>