<?xml version="1.0" encoding="UTF-8"?>
<svg width="1240" height="1754" viewBox="0 0 1240 1754" fill="none" xmlns="http://www.w3.org/2000/svg">
  <defs>
    <linearGradient id="hero" x1="90" y1="90" x2="1130" y2="650" gradientUnits="userSpaceOnUse">
      <stop stop-color="#0F766E"/>
      <stop offset="0.52" stop-color="#2563EB"/>
      <stop offset="1" stop-color="#F97316"/>
    </linearGradient>
    <linearGradient id="bar" x1="0" y1="0" x2="1" y2="0">
      <stop stop-color="#14B8A6"/>
      <stop offset="1" stop-color="#F97316"/>
    </linearGradient>
  </defs>
  <rect width="1240" height="1754" fill="#F4F7FB"/>
  <rect x="70" y="70" width="1100" height="1614" rx="36" fill="#FFFFFF" stroke="#D8E3EF" stroke-width="2"/>
  <rect x="90" y="90" width="1060" height="500" rx="30" fill="url(#hero)"/>
  <rect x="126" y="126" width="230" height="76" rx="16" fill="#FFFFFF"/>
  <image href="https://www.jvision-ai.com/public/logo.png" x="146" y="140" width="190" height="48" preserveAspectRatio="xMinYMid meet"/>
  <text x="126" y="282" fill="#FFFFFF" font-family="Arial, Microsoft JhengHei, sans-serif" font-size="34" font-weight="700">Jvision Production Order</text>
  <text x="126" y="370" fill="#FFFFFF" font-family="Arial, Microsoft JhengHei, sans-serif" font-size="74" font-weight="800">生產工單管理平台</text>
  <text x="126" y="450" fill="#ECFEFF" font-family="Arial, Microsoft JhengHei, sans-serif" font-size="34" font-weight="600">從工單下達、派工排程到進度追蹤，一頁看清現場狀態</text>
  <text x="126" y="518" fill="#FFFFFF" opacity="0.9" font-family="Arial, Microsoft JhengHei, sans-serif" font-size="26">掃描 QR Code 直接進入 Demo，體驗生產任務、站點進度、異常回報與 AI 摘要。</text>

  <rect x="126" y="670" width="304" height="260" rx="24" fill="#F8FAFC" stroke="#D8E3EF"/>
  <rect x="468" y="670" width="304" height="260" rx="24" fill="#FFF7ED" stroke="#FED7AA"/>
  <rect x="810" y="670" width="304" height="260" rx="24" fill="#F0FDFA" stroke="#99F6E4"/>
  <text x="166" y="748" fill="#0F766E" font-family="Arial, Microsoft JhengHei, sans-serif" font-size="34" font-weight="800">工單下達</text>
  <text x="166" y="810" fill="#334155" font-family="Arial, Microsoft JhengHei, sans-serif" font-size="26">建立製令、指定產品</text>
  <text x="166" y="860" fill="#334155" font-family="Arial, Microsoft JhengHei, sans-serif" font-size="26">自動帶出數量與交期</text>
  <text x="508" y="748" fill="#EA580C" font-family="Arial, Microsoft JhengHei, sans-serif" font-size="34" font-weight="800">派工追蹤</text>
  <text x="508" y="810" fill="#334155" font-family="Arial, Microsoft JhengHei, sans-serif" font-size="26">站點進度、工時回報</text>
  <text x="508" y="860" fill="#334155" font-family="Arial, Microsoft JhengHei, sans-serif" font-size="26">異常即時標記</text>
  <text x="850" y="748" fill="#2563EB" font-family="Arial, Microsoft JhengHei, sans-serif" font-size="34" font-weight="800">AI 摘要</text>
  <text x="850" y="810" fill="#334155" font-family="Arial, Microsoft JhengHei, sans-serif" font-size="26">整理瓶頸與延誤風險</text>
  <text x="850" y="860" fill="#334155" font-family="Arial, Microsoft JhengHei, sans-serif" font-size="26">快速產出主管簡報</text>

  <text x="126" y="1048" fill="#102033" font-family="Arial, Microsoft JhengHei, sans-serif" font-size="42" font-weight="800">Demo 測試重點</text>
  <rect x="126" y="1100" width="650" height="20" rx="10" fill="#E2E8F0"/>
  <rect x="126" y="1100" width="520" height="20" rx="10" fill="url(#bar)"/>
  <text x="126" y="1180" fill="#334155" font-family="Arial, Microsoft JhengHei, sans-serif" font-size="29">1. 新增生產工單並查看排程負載</text>
  <text x="126" y="1240" fill="#334155" font-family="Arial, Microsoft JhengHei, sans-serif" font-size="29">2. 更新站點進度、完成數量與異常原因</text>
  <text x="126" y="1300" fill="#334155" font-family="Arial, Microsoft JhengHei, sans-serif" font-size="29">3. 產生 AI 生產摘要，檢查交期與產能風險</text>

  <rect x="840" y="1076" width="274" height="274" rx="24" fill="#FFFFFF" stroke="#D8E3EF" stroke-width="2"/>
  <g transform="translate(847 1083)"><path fill="#ffffff" d="M0 0h35v35H0z"/><path stroke="#102033" d="M1 1.5h7m3 0h1m1 0h1m3 0h1m1 0h4m1 0h1m2 0h7M1 2.5h1m5 0h1m2 0h2m4 0h1m2 0h1m1 0h2m4 0h1m5 0h1M1 3.5h1m1 0h3m1 0h1m1 0h1m2 0h2m1 0h1m5 0h3m1 0h1m1 0h1m1 0h3m1 0h1M1 4.5h1m1 0h3m1 0h1m1 0h5m2 0h1m2 0h1m2 0h1m1 0h2m1 0h1m1 0h3m1 0h1M1 5.5h1m1 0h3m1 0h1m1 0h2m2 0h1m1 0h3m3 0h1m1 0h1m3 0h1m1 0h3m1 0h1M1 6.5h1m5 0h1m1 0h1m5 0h1m2 0h3m2 0h3m1 0h1m5 0h1M1 7.5h7m1 0h1m1 0h1m1 0h1m1 0h1m1 0h1m1 0h1m1 0h1m1 0h1m1 0h1m1 0h7M9 8.5h1m2 0h2m3 0h1m2 0h5M1 9.5h1m1 0h5m3 0h5m1 0h2m1 0h2m1 0h3m1 0h5M2 10.5h2m1 0h2m1 0h1m1 0h1m2 0h2m2 0h2m1 0h2m2 0h1m2 0h2m1 0h4M1 11.5h1m1 0h3m1 0h1m1 0h1m1 0h8m4 0h1m2 0h2m1 0h1m1 0h2M3 12.5h3m2 0h1m1 0h2m1 0h2m2 0h3m1 0h1m2 0h2m3 0h3m1 0h1M1 13.5h4m2 0h3m1 0h1m3 0h1m1 0h1m3 0h3m1 0h1m2 0h3m1 0h2M1 14.5h1m2 0h1m1 0h1m2 0h1m1 0h1m1 0h1m2 0h1m2 0h1m5 0h1m1 0h1m2 0h4M1 15.5h8m1 0h1m1 0h1m3 0h2m3 0h1m1 0h1m1 0h3m4 0h1M2 16.5h3m3 0h1m1 0h1m5 0h1m2 0h1m2 0h1m2 0h3m2 0h2M1 17.5h2m2 0h1m1 0h2m1 0h2m2 0h1m1 0h1m1 0h1m7 0h1m1 0h2m3 0h1M1 18.5h3m1 0h2m1 0h2m5 0h1m1 0h1m1 0h4m1 0h1m2 0h2m1 0h2m1 0h1M2 19.5h2m1 0h3m4 0h1m3 0h2m1 0h1m1 0h2m3 0h4m1 0h1M2 20.5h1m8 0h4m1 0h2m2 0h4m1 0h1m1 0h5m1 0h1M1 21.5h1m2 0h2m1 0h2m2 0h4m4 0h2m1 0h1m1 0h1m1 0h1m1 0h3M1 22.5h2m1 0h1m5 0h1m2 0h2m1 0h3m2 0h1m1 0h2m2 0h1m2 0h2m1 0h1M1 23.5h1m4 0h2m3 0h1m2 0h2m3 0h2m1 0h2m1 0h1m1 0h1m1 0h4M1 24.5h1m3 0h1m2 0h1m1 0h3m1 0h2m1 0h1m2 0h4m1 0h1m1 0h2m1 0h4M1 25.5h1m1 0h2m2 0h2m1 0h1m2 0h1m1 0h1m2 0h1m1 0h1m2 0h1m1 0h6m2 0h1M9 26.5h1m1 0h1m1 0h1m1 0h1m2 0h4m1 0h1m1 0h1m3 0h1m1 0h3M1 27.5h7m2 0h3m1 0h1m1 0h1m1 0h1m4 0h3m1 0h1m1 0h1m1 0h2M1 28.5h1m5 0h1m1 0h1m1 0h4m2 0h4m3 0h2m3 0h4M1 29.5h1m1 0h3m1 0h1m1 0h1m2 0h4m1 0h1m3 0h3m1 0h6m1 0h1M1 30.5h1m1 0h3m1 0h1m1 0h2m2 0h4m1 0h2m2 0h1m3 0h1m2 0h1m1 0h1m1 0h1M1 31.5h1m1 0h3m1 0h1m1 0h1m1 0h8m2 0h2m1 0h5M1 32.5h1m5 0h1m4 0h1m3 0h1m5 0h1m1 0h1m4 0h3M1 33.5h7m1 0h1m2 0h2m2 0h1m1 0h1m2 0h1m1 0h4m1 0h1m3 0h1"/>
</g>
  <text x="840" y="1408" fill="#102033" font-family="Arial, Microsoft JhengHei, sans-serif" font-size="28" font-weight="800">掃描進入 Demo</text>
  <text x="126" y="1436" fill="#64748B" font-family="Arial, Microsoft JhengHei, sans-serif" font-size="24">https://jvision-production-order.vercel.app</text>
  <rect x="126" y="1540" width="520" height="4" fill="#0F766E"/>
  <text x="126" y="1600" fill="#64748B" font-family="Arial, Microsoft JhengHei, sans-serif" font-size="24">Jvision AI | 生產工單管理平台 Demo</text>
</svg>